<?xml version="1.0" encoding="utf-8"?>
<!-- Generator: Adobe Illustrator 18.0.0, SVG Export Plug-In . SVG Version: 6.00 Build 0)  -->
<!DOCTYPE svg PUBLIC "-//W3C//DTD SVG 1.1//EN" "http://www.w3.org/Graphics/SVG/1.1/DTD/svg11.dtd">
<svg version="1.1" id="Слой_2" xmlns="http://www.w3.org/2000/svg" xmlns:xlink="http://www.w3.org/1999/xlink" x="0px" y="0px"
	 viewBox="0 29 1590 1129" enable-background="new 0 29 1590 1129" xml:space="preserve">
<path fill="#808080"    d="M1571.8,510.3c-1.6,0.1-2.9,0.4-4.5,0.5
	c-0.1-1.7-0.1-3.4-0.1-5.2c-0.8,4.5-6.4,2.3-9.5,3.4c2-3.6,6.5-7.4,5.6-12.2c-2.1,0.8-4.8,0.5-7.2,0.4c1.3-4-1.6-4.2-4.9-4.1
	c0.7-1.5,2.1-2.6,3.7-3c-4.6,0-9.1,0-13.2,1.6c1.3-3.6,9.4-13.6,13.4-13.6c-2-4.2-7.3-0.9-10.9-1.5c2.7-1.1,3.8-3.4,6.8-3.8
	c-3.3-0.4-6.8,0.3-10.1-1.1c-0.9-4.1,4.4-3.6,6.9-4.8c0.7-3.4-2.7-3-4.6-3.7c3-1.6,6.1-3.2,9.4-3.6c-1.9-3-6.5-3.7-7.8-6.1
	c4.2,2.3,9.1-2.3,3.2-2.7c2.8-2.5,11.9-0.3,12.7-4.6c-1.1-0.3-2.1-1.5-3-1.7c1.6-2.4,6-1.2,8.7-2.9c2.5-1.7,5.3-6.6,5.4-9.5
	c-4.1,0.3-9.3-0.7-13.5-1.1c3-1.6,13.8-7.4,13.4-11.7c-0.4-0.1-0.9-0.3-1.3-0.3c2.1-2.6,5.8-5.3,4.6-9.3c-1.1,0.1-2.8-0.5-3.8-0.3
	c2-2.8,6.1-8.1,5.4-11.8c-2.7,0.5-5.7,2.7-8.5,2.1c5-3.4,2.5-5.2,2.8-10.1c-0.9,0.1-2.6-0.4-3.4-0.3c2.5-1.5,6.1-2.6,5-6.1
	c-3.4,0.1-11-1.5-12.6-4.8c1.7-1.7,3.8-2.9,6.2-2.8c-2.1-1.7-9-6.4-11.8-4.8c-0.8-2.5-2.9-5.4-5.2-6.9c-2.3-1.5-6.2-1.6-7-3.8
	c5.3,2,11.5-0.8,16.8-0.4c-0.7-6.2-6.1-5.8-11-6.5c2.1-0.9,5.7-3,5.4-6.1c-2.7-1.5-6.4-1.3-8.6-2.4c1.7-1.1,3.7-1.9,5.4-2.8
	c-0.9-2.1-3.8-1.6-6.1-1.3c1.6-2.1,2.4-4.4,2.1-7c-1.1,3.6-8.7-0.9-11.8-1.1c2.4-1.5,2.5-4.1,3.6-6.4c-0.8,0.9-2.3,1.6-3,2.8
	c-1.2-6.5-9.5-4.2-14.3-4.6c1.2-6,11.7-1.1,12.7-6.2c1.5-7-9-2.5-11.9-3.3c-1.5-5.8,2.5-4.9-3.3-8.7c-3.4-2.3-2.9-0.8-1.7-5.4
	c-2.8-0.4-5.7,1.1-7,3.6c0.8-2.3,0.8-5,0.5-7.7c-0.5,0.3-0.8,0.4-1.3,0.7c-0.4-3.7,0.7-7.6-2.8-10.2c-1.1,0.8-2.5,1.6-3.2,2.9
	c-1.6-0.9-2.4-2.8-3.2-4.6c-1.6,1.2-2.9,3-4.5,4.5c-0.3-1.6-1.1-2.9-1.1-4.5c-1.6,0.3-3.3,1.1-4.8,2c1.9-4.5,2.1-14.7-0.9-18.8
	c-0.9,1.1-2.5,6.5-4.6,6.5c-1.7-0.1-2.1-4.1-3.2-5.4c-1.5,2.5-4.4,4.2-7.2,4.4c2.1-3.8,0.5-10.1-2.4-13.2c0.7,4.6-4.2,5.8-6.6,4.5
	c-1.9-1.1-1.3-3.4-3.8-3.8c-0.8-0.1-2.8,2-4.9,1.3c0.1-1.6-0.1-3.3-0.9-4.6c-5.2,3.2-1.9-4.6-2.4-5.7c-1.3-3.3-5.8-3.2-8-0.9
	c-0.1-5.4,7.8-7.8,12.5-7.9c-6.8-2.1-18.7-4-23.8,2.9c0.5-7-2.1-5.7-7.8-6.2c2.9-8.7-2.1-6.2-8.1-8.9c1.2-2.1,0.1-4.4,0-6.8
	c-1.7,2.4-4.2,3.6-7.2,2.8c0-1.7,0-3.7-0.3-5.4c-1.7,1.3-3.8,2.8-6.2,2.3c3-6,0.7-9.7-1.7-14.8c0.5,2.5-0.3,5.3-3,5.3
	c-0.7-3.2-3-7.2-4.5-10.9c0.7,5.7-0.3,13-5.2,11.7c-0.3-3.2,0.9-8.2-0.9-10.9c0.3,2.9-3.7,4.8-6.2,4.4c-0.4-2.3-1.2-4.4-0.9-6.8
	c-1.7,2-9.1,7.6-8.7,2c-1.5,0.5-3,1.9-4.8,2.5c0.1-1.5-0.4-3-0.1-4.5c-1.3,1.5-2.8,2.8-4.1,4.2c0-2.9-1.7-5.3-1.5-8.2
	c-1.5,2.5-2.4,5.3-4.1,7.7l-6.4-18.4c0.1-0.5,0.1-1.1-0.1-1.5c-3,1.9-0.4,5.2,0,7.9c0.4,3.6-0.9,6.8-0.8,10.3
	c-1.5-0.3-8.5-7.2-9.1-4.5c-0.8-4.2-3.3-10.1-5.8-12.7c3.3,6.9-1.7,16.3-7.9,19.6c-0.3-2-0.1-4-0.1-6.1c-1.7,1.2-3.6,3-5,5
	c0.4-3.2-3.4-8.3-3.2-11.5c-0.5,0.3-1.5,0.3-2.1,0.5c-2.3-2.3-3.6-5-5-7.6c0.5,3.2,2.9,4.9,3.3,8.1c0.4,3.2-1.2,7.3-3,9.8
	c-0.7-1.6-4.5-7.4-6-7.7c-2.8-0.4-6.5,5-8.5,6.9c-1.5-2.1-0.9-5-0.9-7.6c-0.5,0.9-1.3,1.9-1.9,2.9c-1.9-3.2-0.3-9-2-11.9
	c0.3,2.8-2.3,3.3-2.4,5.6c-0.3,2.5,1.1,3.4,1.3,5.6c0.5,4-0.8,8.7-3.3,11.9c-1.1-2-0.5-5.8-0.7-8.5c-4.6,3.2-10.7,16.3-18.9,9.1
	c0.8-1.6,2.7-3.3,3.8-4.5c-0.8,0.8-2.1,0.9-2.9,1.3c-0.3-5.8,6.9-5.2,8.9-9.3c1.3-2.8-0.3-7.2-0.4-10.3c-1.7,0.9-3,2.6-4,4.2
	c1.2-4.9-0.1-10.3,0.8-15c-2.7,5.8-10.7,9.4-15.8,11.9c0.4-2,1.5-3.3,1.3-5.4c-3.6,0-7,2.8-9.5,5.2c0.8-1.6,0.7-2.5,0.9-4.2
	c-1.9,2.4-2.9,5.6-5.8,4.8c-3.6-1.1-2-4.8-1.5-7.3c-3.7,0.5-3.6,5.2-7,4.6c-0.1-2,0-4.2-0.3-6.2c-1.9,1.9-4.9,4.1-5.4,6.9
	c0.5-3.4-2.9-16.4-6.2-16.4c-0.3,3.6-4.1,15-7.6,16.8c-3.4,1.9-6.9-2.7-6.4-6.2c-4.6,4.4-7.6,7.8-8-0.1c-2.3,0.7-3.8,2.9-5.6,4.5
	c-3.3-2.8-2.8-4.5-3.3-8.5c-7.7,6.5-15.5,15-26.9,13.4c-0.8-6.6,8.7-10.3,11.8-15c-1.3,0.8-3,0.9-4.6,0.5c1.6-3.7,5.6-9.1,4.6-13.4
	c-3-0.5-5.8,1.9-9.3,1.5c1.6-1.5,1.7-3.4,1.2-5.6c-2.1,1.1-3.7,2.6-6.2,3c6.1-2.4,11.7-11.3,12.6-18c-3.6,2.8-3.7,6.2-6.5,2.1
	c-2-2.9-1.6-5.6-0.1-8.6c-3.7,3.3-7.7,7.7-12.5,9.3c-0.7-2.6,0.8-4.9,2.4-6.9c-2.5,2.9-3.7,6.5-5.7,2.1c-0.9-1.9,0-6.5,0-8.5
	c-1.7,3.7-7.3,10.2-11.3,11.7c0.9-2.8,3.3-4.2,4-7.2c0.5-2.5,0.1-6.2-0.1-8.7c-2.9,2.5-5.4,6.2-8.5,8.7c-0.4-3.4,1.2-7.2,0.5-10.3
	c-0.5,0.4-1.3,1.1-2,1.7c3.3-3.7,2.7-5.7,0.8-10.5c-1.5,2.8-2.9,5.7-4.2,8.5c0.1-2.8,0.5-6.4-0.5-8.6c-1.9,9.4-8.3,14-13.1,21.5
	c2.4-3.2,2-9.9,1.6-13.9c-1.9,1.7-11.1,17.5-14.6,11.1c-1.1-1.9,3.4-9.8,4.8-12.1c-1.6-0.1-3.3-0.1-5-0.1c4-3,6.6-7.2,7.7-12.1
	c-0.5,0.4-1.1,0.7-1.6,1.3c5.4-6.1,4.1-13,3.2-20.3c-3.2,3.8-4,9.4-7.8,13c-3.2-0.8-4.5-3.6-4.2-6.8c-0.8,0.9-1.9,1.6-2.4,3
	c-0.4-0.1-1.7-0.5-2.1-0.9c0-0.9-0.7-2.8-0.7-3c-0.4,1.3-1.6,2.5-2,3.8c-2.3-1.5-2.6-5-2.1-7.7c-1.2,2.8-5.2,15.8-10.2,11.9
	c-0.3,0.4-0.5,0.9-0.8,1.2c-1.6-4.2,3.3-4.6,3.8-8.6c0.4-3.2-2-5.3-1.6-8.5c-1.9,2-3.3,4.2-5.2,6.1c0.8-2.4-1.2-6.9-2.3-8.5
	c-0.8,0.9-1.9,1.5-2.4,2.6c1.1-2,2.1-5.3,1.6-7.7c-3,1.9-3.8,9.5-7.9,8.7c-5.6-1.2-0.4-8.9,0.8-11.1c-3.4,0.1-6.1,8-7.8,10.2
	c-1.3-6.9,4-10.6,6.2-16c-4.1-1.7-8.3,5.8-8.7,9.4c-0.7,0.1-2.9,2.8-4,2.7c-2.4-0.5-2.5-4.1-2.4-6.1c-0.7,1.9-1.6,4.8-3.2,6.1
	c-2,1.6-4-1.2-5,2.3c-1.2-2.6-0.4-6.2-0.7-9.3c-0.7,0-1.5-0.3-2.1-0.3c0-3-4.8-13.9-7.3-14.2c4.1,7.3,2,10.2,1.3,18.2
	c-5.4,0.5-4-8.9-8.5-0.8c-1.2-2.3-2-4.5-2-7c-1.1,0.3-1.9-0.1-2.9,0.7c2.4-4.5-5.4-14-10.2-13.5c2.4,2.1,5.2,7.8,5.2,11
	c-1.1-2.3-3.4-3-4.6-0.7c4.1,0.7,5,6,3.3,8.9c0-0.5,0-1.5-0.1-2.1c-1.6,2-3.4,4.5-1.7,6.8c-1.3-2.1-7.6-8-10.3-7.8
	c-5.2,0.3-4.4,9.3-8,11.3c-5.7,3.3-6.2-8.3-10.3-4.6c-2.3,2,0.4,10.3-4.9,9.3c-0.1-1.7,0-3.7-0.3-5.4c-4.2,0.5-3.4,5.3-6.1,7
	c-0.4-3.8-0.5-8.2,0.4-11.9c0.9-3.4,3.7-6.5-0.4-9.3c-3.2,3-2.5,8.3-4.2,12.3c0.1-0.7,0-1.3-0.1-1.9c-2,0.4-3.8,0.9-5.4,2.3
	c2.1,5.8,9.5,6,8.7,14c-2.5-2.4-5.2-3.3-8.6-2.9c3,2.4,5.4,7.3,4.4,11.1c-3.7,0.8-5.2-3.3-9.4-2.1c0.4,2.9,4.4,4.5,5.3,7.8
	c1.1,3.6-0.7,7-0.8,10.3c-0.9-1.5-0.7-4-0.7-6.1c-1.3,7.7-5.2,15.5-7.8,22.8c-2-4.6-7.2-7.7-8-13c-1.1,1.5-1.5,3.3-2,5.2
	c-3.3-2.9-2.8-7.8-3.2-11.8c-2.1,0.1-2.8,2.5-3.2,4.6c-6.2-5.2,0.9-12.2,0-17.5c-3.6,2-6.5,6.5-8.7,10.1c0.5-2.7-0.3-9-1.3-10.9
	c-0.3,1.1-1.3,2.1-1.7,3c-4.1-1.1-1.9-7.4-5.6-7c-0.3,4.1-1.7,8.3-3.4,11.8c-2.5-2.6-3-8.5-4.6-11.7c-0.4,1.1-1.9,2.8-2.3,3.7
	c-1.3-4.4-6.5-5.7-6.8-11c-1.5,0.5-2.1,0.5-2.4,2.8c-3.7-1.5-7.2-5.3-7.3-9.3c-0.3,1.1-0.7,3.3-1.5,4.6c-3-1.1-5-4.5-5.8-7.8
	c-1.6,0.9-1.9,2.5-1.3,4.5c-2.9-2.4-7.7-3.4-9-7.7c-0.4,0.7-1.9,1.7-2.3,2.4c-0.3-0.5-0.7-0.9-0.9-1.6c-1.9,2.1-3.7,5.7-5.3,7.8
	c-0.9-7.6-1.9-13.4-4.4-20.5c-1.9,1.7-2.1,4.2-4.5,4.5c-1.3-5.2,4.4-8.9,2.9-14c-3.4,2.3-4.6,7.3-7.7,9.3c-0.8-2-1.1-4.4-2.5-5.7
	c-0.3,0.7-1.5,1.5-1.7,2.5c-2.1-1.2-4.5-2.9-6.9-3c-1.1,4.4,3.7,7.8,5.3,11.3c1.7,4,0.9,7.8-0.4,11.7c0.3-3.8-3.3-9.9-5.6-12.5
	c-1.5,3.3,0,7.8-4.8,5.3c-2.5-1.3-3-5.7-5.8-6.9c-0.4,0.7-1.3,1.2-1.6,1.6c-2.4-1.1-5-2-5.8-4.8c-2.5,0.9-2.5,4.5-2.4,7
	c-3.3-2.8-11.5-6.8-15.8-7c2.1,5,3,7.6-3.3,9.3c-3.6,0.9-10.1,0.3-8.7-6c-3.2,1.9-3.7,7.9-7.2,8.5c-0.7-6.2,2.9-9.4,3.7-15
	c-5,0.5-6.6,5-8.9,9.4c-1.1-2.9-1.2-6.6-1.5-10.3c-0.8,0.8-3.4,1.7-4,2.4c-1.1,1.2-0.9,2.6-1.7,3.8c-1.5,2-2.8,4.4-5.2,4.9
	c1.3,3,0.5,9.9-1.1,12.7c-1.6-0.4-2.9-1.3-3.8-2.8c-4.4,5.7-5.4,13-14.6,11.5c0.3-3.4,6.8-9.9-2.4-10.3c-0.3-2.8,0-5.8-0.3-8.6
	c-0.5,0.9-1.6,0.9-2.1,1.5c-1.1-5-2-12.5-0.3-17.2c-7.2,3-3.4,10.3-4,16.3c-1.3-1.2-2.8-1.6-4.5-1.2c-0.1,3.4,2.8,6.8,4.1,10.1
	c1.5,3.7,1.7,7,1.3,11.3c-0.7,0-6.6,0.7-6.5,0.8c-2.4-1.1-2.5-2.3-2.4-5.4c0,0.1-0.5,0.9-0.8,1.5c-6.2,1.3-5.2-9-5.6-12.6
	c-1.1,1.1-1.7,1.3-2.3,2.9c0.1-6.2-1.3-11.3-2.4-17.1c-1.1,3.4-1.7,9.9-4.9,11.9c-1.3-2.3-0.8-5.3-0.7-8.1c-0.5,2.1-0.9,4-1.6,6
	c-0.8-1.7-3.2-10.6-5-10.9c-2.7-0.4-2.8,5-3.2,6.9c-1.6-3-4.6-9.8-7.7-10.9c0,2.9-1.3,5.6-0.9,8.5c-2.5-3-6-7-7.3-10.7
	c-0.8,2.5-0.1,11.3-4,11.8c-4.2,0.7-1.7-7.7-1.6-9.4c-0.4,2.5-1.9,10.6-5.4,7.7c-2-1.6-0.9-10.9-0.9-13.2c-1.2,2-1.3,4.2-3,5.3
	c-1.5-2.7-0.7-5.7-1.9-8.6c-1.6,0-2.8,1.2-3.3,3c-1.2-2-0.7-6.5-0.5-9.3c-1.6,0.7-3.7,0.7-5.6,0.7c-0.3,3.8-2,12.6-4.8,15.1
	c0-0.8-0.3-1.5-0.3-2.3c-2.8,0.3-2.3,3.8-2.9,6.1c-2.4-6.2-2.1-13.9-5.2-19.7c-0.3,0.1-0.4,0.1-0.7,0.3c-0.1-2.4-0.8-4.9-2.3-6.9
	c-2-2.8-6.8-3.3-7.7-6.9c-0.9,5,2.8,12.2,0.4,16.4c-0.4-1.9-0.8-3.4-0.9-5.3c-0.8,6.1-1.6,16.6-8.2,7.8c-5,2.9-5.4,6.1-10.5,0
	c-5.2-6.2-4.2-2.8-6.4,3c-3.3,0.8-4.6-2.4-6.2-4.8c-2.4,2.1-2.8,6.5-3.4,9.5c-2-2.4-1.2-7.6-5.3-4c-2.3,2-2.3,6-2.8,8.7
	c-3.7-1.7-4.2-10.6-6.2-14c0.1,3.6-0.3,9.9-1.7,13.2c-3.6-1.9-2.5-6.2-4-9.4c-1.7,1.3-3.2,4.5-3.2,7c-4.5-0.3-1.6-11.9-7-14.2
	c-2.5,2.5-1.5,6.4-1.7,9.4c-3.3-2-1.5-7.7-5.3-9.4c-1.7,2.1-0.9,5.7-1.1,8.5c-2.7-1.7-4.5-6.9-7.8-6.1c-0.8,2.9-1.1,5.2-0.3,7.8
	c-3.2-0.8-6.1-1.3-8.6-3.7c-0.4,1.9-0.1,3.6,0.7,5.2c-2.8,0.3-5.8,0-8.6,0.3c-1.2,3.8,2,2.8,3.7,4.9c1.6,2,1.5,4,1.7,6.2
	c0.4,3.2,2,9.3-0.1,11.8c-2.9,3.4-9.1,1.6-11.1-1.3c-1.2-1.9,0.8-3.7-1.6-5.4c-2-1.5-3.8-1.3-4.8,1.3c-2.1-1.1-3.4-3.4-4.8-5.4
	c-0.4-0.1-0.7,0-0.8,0.4c0-3.8-2.5-8.6-3.7-11.7c-1.3,1.9-2.4,4-2.8,6.2c-3.3-3.2-5.2,0.4-8.5,0c-0.1-1.2-0.9-1.7-1.1-2.9
	c-2.9-0.8-5,1.1-7.8,1.6c-0.1,0.4-0.3,0.8-0.1,1.2c-1.5-3-5.2-6.6-7.8-8.5c0.1,2.5-0.7,5-2,7c-4.5-2.7-1.9-11.3-8.5-5.6
	c0.4-7.6-4-5-8-1.6c-0.3-1.5-1.3-2.5-1.7-3.8c-0.7,0.4-1.9,0.4-2.3,0.7c-0.1-2.3-0.5-2.6-2.4-3c0.1,1.3-0.4,3-0.1,4.4
	c-3.2-3.7-4.9-13.4-8.7-15.6c0.7,4.5-4.2,5.2-3.4,9.4c-1.9-0.1-3.3-0.8-5.4-0.5c0,0.7-0.3,1.6-0.3,2.3c-0.4-0.8-1.9-2-2.4-3
	c-4,4.9-3.8-3.6-5.6-5.6c-1.7-1.9-5.4-2.5-7.6-3.3c0.7,1.9,2,3.7,2.8,5.4c-1.5-0.1-3.2,0.4-4.6,0.3c2.9,2.7,6.9,7.3,7,11.8
	c-0.8-0.4-1.5-0.4-2.4-1.2c2.6,3,5.6,14.6-2.3,12.3c-0.9-2.1-1.2-4.6-1.1-7c-4,1.2-9.5,5-12.6,8.3c0.7-1.7,1.7-3.6,2.1-5.2
	c-2.3,0.3-3.7,1.7-4.1,3.8c-0.1-0.3-0.7-0.8-0.8-1.5c-2.4,1.3-2.3,4.4-4.6,5.7c-0.4-0.9-1.6-1.9-1.7-3.2c-2.6,0-3,3.3-4.5,5.2
	c-1.2-1.6-1.3-3.8-0.9-5.8c-1.7,3.8-5.7,4.5-8.9,6.6c0.5-2.9-0.1-7.6-2.3-9.3c0,0.5-0.1,1.5-0.1,2.1c0.1-3.8-1.9-7.7-5.4-6
	c-3.2,1.5-2.8,6.5-5.8,7.7c-1.5-2.4-0.7-6-0.9-8.6c-2.5,1.3-3.3,4.4-4.1,7c-1.1-1.5-1.7-3.4-2.4-5.4c-1.5,1.5-1.5,4-2.8,5.4
	c-0.5-2-0.9-3.7-2.7-4.6c-1.3,2.1-0.8,5.2-0.8,7.7c-1.1-1.5-2.1-1.3-3-2c-0.3,1.7-0.1,3.6-0.3,5.3c-1.7-3.2-5.3-4.5-8.6-5.3
	c1.5,3.2,2.9,7.3,3.2,10.9c-0.3-0.7-0.7-1.2-0.9-1.9c1.7,4.1,2.7,10.3,0.7,14.8c-2.8-0.5-4.5,1.2-4,4.1c-1.7-1.2-7.6-8.2-7.8-2.5
	c0.9-4.9-3-9.1-7-11.5c-0.3,2.1-0.1,4.4-0.1,6.6c-1.5-0.5-2.8-1.5-4-2.7c1.5,2.5,1.6,8.3-0.3,10.9c-0.7-0.5-2.4-0.9-2.9-1.5
	c0.1,1.5-0.4,3-0.1,4.5c-1.6-1.9-3.4-3.2-4.9-5.2c-0.1,2.9,1.6,5.6,0.7,8.5c-0.3,0-0.5,0-0.7-0.4c-1.2,2-0.7,4.4-0.9,6.8
	c-0.4-0.3-1.5-0.3-2.1-0.7c-0.5,2.8-2,5-2,7.8c-1.2-1.3-2.3-1.1-3.7-1.5c0,0.9-0.3,1.9-0.1,2.8c-1.5-5.7-6.1-7.9-10.3-11.5
	c2.1,5.6,4.5,9.4,3.8,15.6c-2-0.3-4.5-1.3-6.2-2.8c1.1,2.4,1.6,6.5-0.3,8.5c-0.7-0.7-2.1-0.8-2.8-1.3c-1.2,2.4-0.9,5-1.1,7.7
	c-2.4-1.3-5.3-3.3-6.4-5.8c0.3,3.7,0,11.1-2.9,13.2c-0.3-0.9-1.3-2-1.6-2.8c-0.4,0.7-0.8,0.9-1.1,1.9c0.4-2.8-1.2-5.3-2.4-7.4
	c0.1,3.6-2.1,7-4,9.8c0.3-3.2,0.1-6.9-2.4-8.5c-1.6,3.4-1.3,10.1-3.8,12.7c0-2-0.8-3.7-0.9-5.7c-0.3,3.3-1.9,6.4-1.7,9.7
	c-1.3-0.8-2.7-2.1-3.7-3.6c-1.9,1.9-0.5,5-1.6,6.9c-1.3-3-2.4-9.3-5.7-10.3c-0.5,2.1,0.3,4.4,0.5,6.2c-3.8-2-5.2-9.9-5.6-13.9
	c-4.5,4.6,0.1,13.5,1.6,18.4c-1.1-1.2-2.5-1.9-3.6-2.8c0.3,2.7,1.5,4.5,1.2,7c-2.4-1.6-6.4-4.4-9.4-3.8c0.3,0.5,0.4,1.5,0.7,2.1
	c-2.5,0.7-4.5-1.1-7.2-0.5c1.9,2.3,3.2,5.2,4.9,7.6c-4-2.8-8.7-2-13.4-2.1c0.1,0.3,1.1,1.3,1.2,1.5c-0.4,0-0.8,0.1-1.2,0.4
	c0.9,1.9,2.1,3.7,3.4,5.3c-1.6-0.3-3.6-0.9-5.2-1.3c2,2.8,6,5.8,6.1,9.4c-1.1-1.1-2.6-0.9-3.7-1.5c0.1,0.9-0.4,2.1-0.3,3
	c-2.7-1.3-5.6-3.3-8.3-3.8c3.7,2,5.8,7.8,5.2,11.8c-1.1-0.7-2.8-1.1-3.7-2c0.3,1.6,0.9,3.4,0.5,5.2c-1.6,0-3.2-0.3-4.6-0.5
	c0.8,1.5,1.9,3,2.9,4.5c-2.5,0.4-4.5-0.8-6.9-1.3c2,2.3,4.5,6.2,7.2,7.9l-6.9,0.5c2.9,1.7,6.2,5.7,7.6,7.3c-0.5,0.1-0.9,0.3-1.5,0.4
	c1.2,1.7,2,4,1.3,6.1c-2.9,0.1-6.1-0.1-8.5,1.7c5.4,4.9,11.5,1.3,14.4,8.9c1.7,4.5,2.9,7.8,0.4,11.8c-1.7-2.1-3.6-6.8-6.1-6.9
	c-0.5,3.2-0.8,6.1-1.1,9.4c-4.1-0.1-4.8-3.6-7-5.4c-0.8,1.5-1.1,2.9-1.1,4.6c-2.3-0.3-4.2-2.9-4.6-5.3c0.1,0.9-0.1,2-0.1,2.9
	c-4.6-2-7.2-13.2-12.6-11.9c-1.1,4.9,1.6,15.8,6.2,18.7c0,4.6,1.1,12.3,4.1,15.4c-0.4-0.5-1.2-0.9-1.5-1.2
	c-0.5,3.4-0.4,8.5,2.9,10.6c-1.2,2,0.5,6.8,3.8,7.8c-0.4-0.1-0.8-0.1-1.2,0.1c-0.9,3.7,2.5,8.6,4.8,10.9c2.8,2.8,7.2,4.5,10.9,5.8
	c-0.7,0-1.5,0.1-2.1,0.1c3.3,5.3,13.4,5.4,18.3,8.9c-2,0.7-5,0.1-4.9,3.7c-2.4-0.5-3.6-2.8-5.4-3.8c1.1,1.2,1.7,2.9,1.5,4.6
	c-5.8-1.7-12.7-2.7-16.7-7.7c-0.1,2.6,0.1,5.3,0.8,7.6c-6.6,0.7-6-11.7-11.8-11.8c-0.3,2.9,0.3,6-1.1,8.6c-4.1-1.2-6-6.4-7.2-10.1
	c-0.3,5,4.4,9.7,6.4,14c-3.2,0.4-8.7,1.2-12.2-0.4c3.8,5,2.9,19.6,5.6,24.5c-2.8,0.3-5.7,0-8.3,0.3c-1.2,4.6,3.2,6.1,3.8,9.4
	c-1.7,0.1-3.2,0-4.6-0.5c0.9,3.3,5.7,6.8,1.6,9.9c-2.8-0.8-4-3.4-5.7-5.8c0.7,3,0.9,6,0.7,9.3c-3,0.8-5-1.2-6.9-3
	c-0.3,0.7-0.7,1.6-0.8,2.1c0.9-6.8,1.7-10.6-1.2-17.2c-2.8,1.6-4,5-5.7,7.8c-1.3-1.9-2.1-6-2.3-8.6c-4.6,1.2-4.1,14.6-8,14.4
	s1.9-9.5,2.4-11.1c-5.7-1.5-6.8,5.7-8.7,9.3c0.4-5-1.1-13.8-5.6-16.7c-4.8,4.2-4.4,12.2-4.9,18.4c-4.2-0.3-6.9-6.6-10.2-6.2
	c-0.3,6.2,7.3,13.1,8.6,18.9c-3.4,1.1-4.8-2-7.2,0.9c-1.5,1.9,0.3,9,0.8,11.1c-0.8-0.4-1.5-0.4-2.4-1.2c2.1,3.8,0.7,9.9,1.6,14
	c-1.7,0-3.4-0.8-4.8-2c-0.3,1.7,0.3,3.8,0.8,5.2c-1.5-0.7-3.2-1.5-4.6-2.3c0.5,1.1,0.8,2.5,1.6,3.6c-4-1.3-8.1-2.8-12.2-4.1
	c5.2,4.6,5.3,10.5,4.8,17.2c-2.4,0.5-4.4-0.8-6.2-2.1c2,3,5.7,20.4-2.7,15.4c0.8,7.4,4,7-4.6,7.8c2.8,6,4.5,9.7,11,12.1
	c0.5,2.3,3.2,7.2,1.9,9.5c-1.7,2.9-4.4,0.5-7.2,0.9c0,1.2-0.8,2.1-0.9,3c-2-0.8-4-2.6-5.7-3.8c-1.3,2-0.7,4.6-0.9,7
	c-5-4.6-8.2-1.3-6.9,4.8c0.9,4,3.6,9.7,6.4,12.7c-0.3-0.4-0.7-0.7-0.9-1.1c0.9,2.6,3,8.1,2.4,10.9c-2.1-0.5-4-2.1-6.2-2.3
	c-0.4,2.9,1.1,5.4,0.5,8.6c-3.7,0.8-3.7-3.2-7.2-2.5c-1.2,0.3-5.8,4.8-6.4,5.7c4.1,0.5,10.3-0.1,13.5,1.6c-2.7,1.3-9.4,3.8-8.6,7.3
	c11.9,1.1,22.8,2.5,21.3,16.8c-1.1-0.5-2-0.3-2.9-0.5c8.6,10.5-5.6,11.5-12.7,6.4c-1.5,6.1-5.4-1.9-8.1-0.8c-1.2,0.5-3.6,8-4.4,9.4
	c-1.1-0.7-2-0.3-2.9-0.7c1.3,5.6,6,9.9,6.2,15.8c-3.6,0.4-7-2.5-10.2-3.8c-0.5,2.9-0.9,5.7-1.1,8.6c-2.5-0.8-3.4-3.7-6.1-3.8
	c-0.4,4.6,1.7,8.1,1.3,12.5c-1.1-1.2-2.7-1.6-3.7-2c0.3,1.6,0.5,3.4,0.7,5.2c-2.3-2.4-9.1-8.2-11.9-8.5c0.1,1.5,0.1,3,0.7,4.4
	c-5-5.6-10.5-10.9-15.4-16.3c2.7,4.8,7.7,16.8,5.2,21.9c-0.5-0.8-2-1.5-2.4-2c-1.7,2.5-2.3,11.1-1.7,14c-3.2-1.6-5-5-5.8-8.3
	c-5.8-1.9-3.3,15.1-4,19.1c-2.8-1.2-3.3-4.2-3.3-7.2c-2.7,3.4-4.4,9.1-6.9,13.4c-1.1-1.9-1.6-4-2-6.1c-7.2,7.7,5,18.8,8.7,25
	c1.3,2.1,8.3,10.7,3.2,12.5c-4.9,1.7-10.1-11.7-11.8-13.6c-1.7,1.3-2.7,4.1-3.8,5.7c-0.1-0.8-0.3-1.5-0.3-2.3
	c-0.4-0.3-0.9-0.3-1.3,0c-0.3,2.4,1.1,8.5-0.3,10.3c-2.3,3.2-4.9,0.1-4.6-2.9c-6,4-1.1,17.6-1.9,23.7c-0.5-0.3-0.8-0.4-1.3-0.7
	c-0.1,2.1,3.8,15.6-3.3,11.3c-0.3,2.7-1.3,9.4,0,11.8c1.9,3.4,7.7,3.7,8.6,7.8c-1.7-0.5-3.6-0.7-5.4-0.4c0,5.3,6.1,6.9,8.5,11.1
	c2.4,4.1,6.1,10.6,7.3,15.1c-0.5-0.1-1.3,0.1-2,0c1.5,6.6,6.6,13.8,3.6,20.8c-1.9,0.1-3.4-0.7-5.4-0.5c0.1,1.9,0.9,3.6,1.5,5.4
	c-1.5-0.4-3-0.5-4.6-0.5c3.3,9,6.5,13,14.2,19.1c2,1.6,8.2,5.6,9,8c1.9,5.7-4.8,1.7-8,2.6c2,4.2,16.4,14.3,4,13.6c2,2.8,6,4.5,7,7.7
	c-0.8-0.3-1.5-0.1-2.1-0.5c2.4,4.1,9.3,9.7,13.5,11.7c2.8,1.3,5.7,3.7,8.2,4.9c3.6,1.6,7.4,0.4,11,1.9c0.3,0.8,0.1,1.3,0,2.1
	c-0.8-0.1-1.9,0.3-2.8,0c2,4.5,10.6,7.8,14.8,9.9c6.4,3.2,14.6,3.2,20,7.9c-0.9,2.1-3.4,2.4-5.2,3.2c3.7,3.3,9.8,5.2,14.2,4.8
	c5.4-0.4,10.3-4.8,16-3.4c4.5,1.1,7.8,2.8,12.9,3.2c1.7,0.1,5.3-0.9,6.2,0.9c1.2,2.4-3.4,2.5-4.6,2.4c7.6,6.2,14.6,0.5,23.2,0.7
	c1.3,0,5.4-0.7,6.5,0c2.6,1.9,0.5,1.5,0.1,3.4c-0.8,4-3.6,7.7-4.2,11.5c1.6-3.3,5.3-8,9.5-6.8c-0.8,2.6-3.3,12.1,0.3,14.2
	c4.1,2.4,3.2-10.7,3.3-11.8c4,2.7,12.1-1.2,17.2,0.8c0,0.7,0.3,1.5,0.3,2.3c4.5-2.3,13.1-2.9,18.2-3c-0.3,2.7,0.4,7.7,3.8,5.6
	c1.9,1.5,3.3,3,4,5.2c1.9-1.2,3.2-3.2,4.9-4.5c0.3,2.5,0,5.3,0.3,7.8c3.2-0.1,5.7-4.5,9.4-4.6c0.3,3,0.3,5.7,1.1,8.6
	c2.6,0.7,7.6-11.9,11.3-1.7c3.3-4.6,7.3-5.8,12.7-4.4c6.6,1.9,4.4,3,0.9,6.9c7.6,4.4,16.6-0.5,24.6,0.3c1.5,7.6,16.2-0.3,20.9,0.8
	c0,1.6-1.2,3-2.8,3.8c12.3,6.4,25.3,3.3,37.1-3.3c6.5-3.7,11.7-8.1,18.6-11.3c5.7-2.7,9.4-8.9,15.2-11c1.1,1.6,0.8,3.4,0.9,5.4
	c4.2-0.7,8.5-8,12.6-10.2c0.1,0.4,0.3,0.8,0.1,1.2c2-1.2,3.7-3.3,6.4-2.8c-0.4,0.8-0.4,2.4-0.7,3c2.9-1.2,6.4-6.2,9.3-6.6
	c3.7-0.4,2.4,3,2.6,6.4c3.7-3.3,5.8-5.8,5.6-10.9c3.3-0.3,6.9-0.3,10.2,0c-0.3,4.1,4.2,9.1,6.6,3.3c-0.3,4.5,2.3,6.5,5.2,9.4
	c4.9,0,8.9-0.1,13.1,2.4c0.7-1.7,1.1-5.3,3.4-4.6c1.6,0.4,1.9,3.2,1.6,4.4c0.5-1.9,1.3-3.6,2.4-5.3c1.1,0.5,2,1.3,2.5,2.3
	c1.5-1.2,4.6-1.7,6.1-2.6c1.7-0.9,2.6-1.5,3.3-2.3h0.1c5.6,1.5,11.9,6.4,17.6,6.5c6.6,0.1,13.2,0,20,0c6.5,0,12.5,2.4,18.4,3.8
	c4.9,1.2,10.3,3.4,14.6,1.2c4-2.1,8-5.7,12.1-8c12.5-6.9,25.2-13.2,36.7-21.1c16.2-11.1,43.5-19.5,62.3-11.1
	c-5.7,4.1,14.7,6.8,16.6,7.8c6.8,3.7,13.8,13.2,19.1,19.5c5.2,6.1,12.7,9.9,17.6,16c1.5,1.7,1.7,4.2,2.9,5.7
	c1.1,1.2,3.6,1.5,4.5,2.9c1.9,3.2,0.7,7.8,2.9,11.3c-3.4,0.4-6.4-0.8-9.4-0.5c0.3,2.5-0.1,9.1,1.5,11.1c1.7,2.1,7,2.9,9.8,3.8
	c8.2,2.8,14.2,5.7,20.7,12.2c5.2,5.2,11.1,8.7,16.6,13c4.2,3.3,11.9,10.9,13.6,15.6c-6.4,2.9-1.7,5-1.3,9.7c4.1-1.9,3.6-1.2,4.6,2.5
	c0.9,3.2,2,6.5,2.6,9.5c1.3,6.2,2.7,12.5,4.6,18.4c4,11.8,6.2,25,6.5,37.6c0.5,27.6,4.6,52.9,9.7,79.4c2.4,12.7,3.2,26.1,3.2,39.2
	c0,14.6-5,27.4-7.2,41.6c-0.3,2-1.9,6.5-0.3,8.2c1.6,1.6,7.7,0.5,9.8,0.5c7.2,0,14.4,0,21.6,0c3,0,6.6-0.5,9.7,0
	c3.4,0.5,6.5,2.7,10.5,1.7c3-0.8,5.2-3.3,7.8-5c2.8-1.9,4.9-2,8-3.2c5.2-2,8-5.4,11.9-9.3c-7-24.2-8.7-50.3-14.8-75.5
	c-2.9-12.2-6.2-24.6-8.1-36.8c-0.9-6.2-3.4-11.3-4-17.6c-0.7-6.9-0.8-12.7-2.4-19.2c-1.7-7,1.1-11.1,2.4-17.6
	c1.2-5.6,3.4-11.7,5.8-16.8c1.5-3,4.1-5.8,5.3-8.9c1.2-2.9,1.5-6.4,2.5-9.7c2.4-6.9,2.5-11.9,7.4-17.6c4-4.6,8.5-9,9.4-15.2
	c0.5-3.7-0.1-5.3,1.9-8.6c1.7-3,4-5.7,5.6-9c5.3-10.6,14.4-18.7,26.2-20c8.6-0.9,19.7,5.4,26.4,1.5c10.9-6.5-1.3-15.1-9.5-14.3
	c1.3-7.3,16.6-16.3,22.1-20.9c7.6-6.4,15.8-15.8,20.8-24c3.2-5,3.6-10.7,6.4-16c2.5-4.6,8.1-8.7,12.3-11.7
	c5.2-3.4,10.3-6.2,15.9-9.3c5.3-2.8,9.4-6.9,14.4-10.1c1.7-1.1,3.8-2.5,6.2-4.2c0.5,1.2,0.8,2.5,0.9,3.8c0-1.2,0.5-2.4,0.8-3.4
	c0.4,0.1,1.1,0.4,1.5,0.7c0,0.7,0,1.5,0,2.1c-7.4,1.7,8.2,12.7,9,15.1c-0.4-1.7-0.7-3.4-0.7-5.2c6.2-0.5,6.9,0.1,7.3-6.5
	c2.8,0.7,4.9,2.3,5.6,5.4c6,2,2.5-9.9,10.2-7.7c-0.8,2.3-2.5,4-2.4,7c0.3,3,2.5,5,3.4,7.8c2.1-3.2,4.4-7.6,7.7-9.3
	c-0.1,1.6,0.1,2.4-0.5,3.8c1.1-0.8,0.7,0.1,1.6-1.3c6.1-0.4,6.6,6.5,0.8,6.5c0.9,1.7,0.5,4.6-1.1,6.4c3.8-2.6,5.3,0.1,9,2.1
	c-3.6,1.7-13.5,3.2-11.8,8.9c1.7,0.1,3.4,0.1,5.3,0.1c-5.4,0.5-6.8,7-7.7,11c2.3-1.6,5-1.5,7.7-1.3c-0.7,0-1.3,0.1-2,0.1
	c-1.2,2.6-0.9,5.8-1.6,8.5c2-2,5.2-1.5,7.8-1.2c-0.5,1.6,0.4,1.9-1.2,3.2c4-0.8,6.1,1.6,9.3,3.3c-0.5,1.5,0.5,1.6-1.2,2.9
	c4.4,2.9,9.8,2.9,13.1-0.5c2.1,3.7-1.3,7.2,5,5.3c3.3-0.9,7.3-4.1,7.4-7.6c2,0.7,2.7,2,1.6,3.6c1.9,0.1,4.2,0.5,6.2,0
	c1.6-0.4,1.7-2.3,4.1-2.1c-0.1,1.5,0.4,3.2,0.3,4.6c2.9-0.4,5.2-3.3,6.5-6.1c0.8,1.6,0.7,3.4,0.7,5.3c4.8,0.7,14,4,12.9-5.4
	c3.6-0.5,6.4,2.9,10.2,2.1c0.1-0.4,0.3-0.9,0.3-1.3c2,1.3,3.2,4,4.6,6.1c-0.5-2.4,0.3-4.8,0.9-6.9c0.8,0.1,2.1,0.1,2.9,0.5
	c0.1-0.3,0.7-1.1,1.1-1.2c-0.3,2.3,1.1,4,1.7,6c0.8-0.1,2.1,0.4,2.9,0.3c0.4,3.3,2.9,5,5.6,6.2c-0.7-1.6-1.1-3.6-0.5-5.4
	c2.3-0.7,4.1,0.4,5.2,2.4c-1.7-2.4-1.3-5.3-1.1-8.1c1.3,1.1,1.7,3.8,3.2,4.5c2.4,1.3,6.8-0.8,9.4-0.8c0-0.9-0.1-1.7-0.5-2.5
	c2.3,2.1,6,2.6,8.1-0.3c2.1-2.9,0.4-8.5-1.7-11.7c-0.3-0.4-0.5-0.7-0.9-1.1c0.1,0,0.1,0.1,0.3,0.1c-0.1-0.1-0.1-0.3-0.3-0.3
	c0.1,0.1,0.3,0.3,0.3,0.4c4.8,2.4,10.9,2.4,16.3,1.7c-0.1-0.5-0.5-1.6-0.7-2c2,1.3,3.7,3.7,5.3,5.3c0.3-2,0-4.1,0.8-5.4
	c1.6,2,3.3,5.7,4.2,8c0.7,1.7,1.3,6.9,2.5,8.1c7,6.9,7.4-7.2,8.5-8.7c0.8,3.2,3.6,3.7,6.5,3c0.1-0.9,1.1-2.1,1.2-2.8
	c2.3,4,1.3,5.2,4.6,7.8c2.3,1.9,4,2.1,4.8,5.6c1.5-0.5,2-2,1.9-3.6c0.9,2.8,7,5,10.1,4.2c5.2-1.3,7.2-8.3,8.7-11.8
	c0.3,0.4,0.7,0.9,0.9,1.3c0-0.7,0.1-1.3,0-2c1.3,1.9,1.7,7.4,4,8.5c4,1.7,4.5-2.4,4-5.3c0.5,4.2,4,7,8.1,4.8c3.3-1.9,4-6.9,4-10.3
	c0,7.2,1.5,11.7,7.9,4.6c0.8-0.8,4.4-7.4,5.6-7.3c2.6,0.1,1.6,4,0.3,5c4.5-1.7,8.1-11.1,11.7-11.1c-0.8,0.9-1.6,2.7-2.4,3.6
	c3.3-2.4,7.2-6,10.3-7.6c3.2,2.5,2.6,5.2,1.9,8.6c1.9-0.1,4-0.1,5.4,1.1c-1.6,3-7.2,11.5-6.2,15c6.8,0.4,6.1-9.1,9.7-12.5
	c1.3,3.7,0.4,5.8,3.6,8.7c2.4,2.1,6.6,5.7,9.7,5.3c-0.9-3.3-5.6-9.5-3.2-12.6c0.8,0.9,2,1.1,2.5,2.9c-0.5-2.9,0.5-10.5,2.9-12.6
	c3.8-3.3,4.5,4.5,6.9-0.8c1.1-2.4-2.4-9.9,2.9-8.6c3,0.7,4.4,6.9,4.2,9.4c2.4,0.1,4-2.4,5.4-4c0.8,0.7,1.5,2.9,2.3,3.3
	c0.7,0.4,2.7,0,2.7-0.1c1.9,1.6,2.9,2.8,2.4,6.2c5.3-5.2,4.6,1.5,5,5.6c1.7-0.8,2.5-2.5,3.3-4.2c0.9,2.8,4.6,3,6.5,0.8
	c1.5-1.7,0-4.5,1.3-6.4c3.7,2.1,2.4,6.9,1.7,10.1c8.9-1.3,4.6-5.4,3.2-11.1c2.7-2,7.6,0.3,10.2,1.6c0.4-2.1,1.1-4.1,1.1-6.2
	c4.6,0.4,7.7,1.5,8.9-4.9c2.8,0.8,4.2,3.6,6.9,4.6c0.3-0.3,0.5-0.7,0.8-0.9c-1.1-1.6-1.7-3.3-1.3-5.3c2.7,1.2,7.9,3.7,11,3.8
	c0.7-2.9-3.2-5.7-5.4-7.2c3-4.6-7.8-10.3-6.4-16.7c6.2-2,4.5,4.5,6.6,7.2c6,7.4,4-2.3,4.6-4.6c6.4-1.2,9.8,10.1,14.3,11.8
	c1.3-2.3,2-4.8,3.4-7c0.9,1.6,0.5,4.8,0.7,7c6.2,0.1,2.5-7.4,4.9-11c1.5,0.9,2.9,2.8,4.5,3.8c-0.1-2.3-1.1-4.4-0.7-6.9
	c3,2.8,2.9,7.2,4.2,10.9c3.6-0.3,2.3-6.4,2.3-9.3c5.3,7.3,3.8-6.9,4.2-8.2c2.1,1.1,2.7,3.6,4.6,4.6c1.5-2.4-3.4-8.1-4.8-11
	c2.9,0.8,7.2,3.4,10.2,3c-0.1-2.5-0.1-7.2,3.2-7c0.1,2.3,1.2,5.3,4.1,4.8c3.6-0.8,2.3-5.3,2.5-8c4.6-1.3,7,5,11.8,3.7
	c-0.1-2-1.9-3.7-2.9-5.3c1.6,0.9,3.4,1.6,5.4,1.3c-0.1-1.6-0.9-3.3-2-4.8c7.7,0.3,9.9,0.4,10.2-7.7c-0.7,2.1-5.4,3.4-7.9,2.8
	c0.8-1.1,2.9-3.2,3.6-4.5c-4.4,4.2-14.8-1.2-15.6-6.4c2.1-0.5,4.1,0.8,5.4,2.1c-1.7-1.9-5.2-5.8-4.5-8.6c3.2-0.3,5.3,4.2,6.9,6.2
	c0.3-2.7,0-5.3,0.3-8c3.8,1.5,6.4,8.1,6.5,11.9c4.5-3.4-0.5-12.6-0.1-17.4c0.4,2,1.9,3.2,3.8,2.8c0.5-3.4-1.5-6.9-0.5-10.2
	c4-0.8,4.8,5.2,8.6,5.4c0.7-2.8-1.2-5-0.5-7.8c4.6,1.9,6.4,12.6,11,12.7c1.2-7-4-11-7.2-16.4c2.1,2,6.9,4.6,9.4,5.2
	c-1.3-4.8-7.4-10.1-7.6-14.2c3.3,1.3,6.1,4.4,9.4,5.4c0.7-5.3-1.3-7.8-6.1-10.2c2.7,1.2,5.2,0.5,7.7-0.3c-0.1-2-2-3.4-3-5.2
	c2.4,1.3,5.4,2,7.8,0.5c-0.9-3.2-6.5-4.2-9.4-5c-0.3-0.4-0.3-0.9,0-1.3c5.3,0,5-5.3,6.8-8.1c-4.5-0.3-8.6-3.4-2.1-5.6
	c-2.3-0.1-4.4,0.1-6.4-1.2c0.8-1.9,2.5-2.5,4.5-2.4c-2.1-3.4-5-2.9-8.3-3.8c3.2-0.7,4.8-1.5,6.2-4c0.4-0.8,0.5-1.9,0.5-2.7
	c-3.8,1.3-10.7-0.1-10.9-2.8c2.3-1.3,4.8-0.4,7-2c-1.5-2.3-5.2-3.4-7.7-4.4c1.5-1.6,3.7-2.4,5.8-1.3c-0.9-3-4-3.4-6.8-2.9
	c2.5-0.5,5.2-1.2,7.8-0.8l-0.8-6.4c2.3,0,10.1,1.2,11.4-0.8c2.7-3.7-2.8-4.2-4.1-6.2c2.9-2.4,8.1-2.9,11-4c-3.2-1.1-3.7-6-6.6-6.6
	c2.4,0.1,5.4,0,7.3-1.1c4.2-2.3,1.7-3,2.8-6.2c1.2-3.8,7.7-5.7,7-11c-0.4,4.9-6.5,0.1-7.2-2.4c3.7-1.5,6.6-7.8,7-11.3
	c-1.3,0.1-3-0.4-4.4-0.1c1.7-1.5,2.8-3.6,1.3-5.6c-0.7,0.5-2.3,0.9-2.9,1.6c1.2-1.7,1.7-4.2,1.2-6.4c-1.9-0.4-3.3,0.1-4.5,1.3
	c-0.1-1.2-0.9-1.9-1.2-3c-1.9,0-3.4,1.2-4.6,2.8c0.1-2.8,0.1-5.7-0.1-8.5c-2.5,5.7-9.1,5.2-15,4.6c-0.4-2.1,0.8-4.1,2.5-5
	c-2.4,0.5-5.2,1.2-6.6,0.1c-3.4-2.4,0.4-4,2.9-4.6c-1.5-1.1-8.7-3.4-8.6-5.6c0.3-2.5,7-3.3,8.9-3.3c-0.1-3.2-5.2-6-1.9-8.6
	c-0.9-4.5-1.3-6.9-6.6-6.6c3.6-1.3,17.2-2.4,18.2-6.1c-2.5,0.1-5.6-0.1-7.7-1.7c3.8-2.3,9.8-0.5,14-2.5c-0.3-0.5-0.1-1.5-0.7-2.1
	c3.2,0.1,12.2-1.7,12.6-4.8c-1.5,0.1-3.2-0.4-4.6-0.3c1.2-1.1,5.3-1.1,6.4-2.4c1.7-2.3,0.8-5.2-2.4-4.9c5-2.9,14.2-6,15-13.4
	c-3.8,3.4-11.3,5.3-16.4,5.6C1563.5,519.3,1576.8,517.9,1571.8,510.3z M1022.1,764.3C1022,764.3,1022,764.3,1022.1,764.3
	C1022,764.3,1022,764.3,1022.1,764.3z M909.9,779.1c0.7-2.5,2.3-4.5,4.9-3.6c0.1,0.4,0.3,0.8,0.1,1.2c0.5-1.5,1.2-3.2,2.3-4
	c0.1,3.3,0.1,6.6,0.1,9.9c0,3.7,0.1,7.6,0.3,11.5c-2.3,1.2-4.5,2.8-6.5,4.2c-0.8-4.8-1.6-9.5-2.8-14.2c-0.4-1.7-0.9-4.9-1.7-8.2
	C908,776.6,909.2,777.7,909.9,779.1z M916.1,809.6c-0.5,2-1.2,3.8-2.1,5.7c-0.5-1.1-0.9-2.4-1.2-3.8
	C914,810.7,915,810.1,916.1,809.6z M666.6,754c3.2-1.3,5.4-1.3,8.1,0.4c1.3,0.8,1.3,2.5,3,3.4c0.8,0.4,3.7,0,4.6,0.1
	c0.1,0.4,0.1,0.9,0.3,1.3c4.5,1.7,9.1,2,13.6,1.5c9,7.3,17.8,16.2,21.2,27.4c-5.3,0.9-14.2-4.6-18.7-7.3c-6.8-4-13.5-7.3-20.3-11
	c-4.9-2.8-8.9-6-12.5-9.4C666.5,758.2,666.5,755.7,666.6,754z M603.9,811.5c-10.6,7.2-21.6,14-32.9,20.3c-5.3,2.9-11.1,6.6-16.6,9.7
	c-3.3,1.9-3.2,1.3-6,0.8c-2.7-0.5-5.6-1.3-8.6-1.9c-6.4-1.1-12.7,0.4-19.2-0.1c-6.5-0.5-12.7-2.1-19.2-2.3c-6-0.1-11.3-2-16.8-3.4
	c0-0.5,0-1.3,0.1-2.1c3-0.4,6.8-0.4,8.9,2.1c1.9-1.3,5.2-4.1,4.1-6.4c2.7,0.1,5.2-0.3,7.6,0.8c-0.1-0.5,0.1-1.3,0-2
	c1.9,0,4.2-1.6,5.7-3.4c1.9,1.2,4.4,4.4,7.3,3c3.3-1.6,3-7.8,0.9-9.9c1.5,0.8,2.1,0.1,3.7-0.4c0.4-0.9,0.4-2.8,0-3.7
	c-4-0.7-0.1-9.4,2-11.1c5.7-4.8,6,2.4,6.4,6.2c3.2-2.3,0.1-4.4,4.6-3.8c2.7,0.3,3.8,1.1,4.9,3.7c0.3-1.3,0.7-2,0.8-3.4
	c-0.7,4.9,3.3,6.6,3.3,10.9c1.5-0.1,2.3-0.9,2.4-2.1c1.6,0.1,5-1.6,6.2-2.5c2.4-2,5.8-6.4,7.3-8.6c-0.3,5.3,5.7,1.7,5.8-1.6
	c2.1,5.8-0.8,7.8-0.4,12.6c0.1,2.3,2.4,1.9,1.2,5c-0.5,1.6-3.6,2.4-4.1,4c-3,9.5,10.1,3.2,12.9,0.7c2-1.7,3.3-4.4,5.3-5.7
	c1.7-1.1,5-0.7,7.3-2.1c4.5-3,4.9-6.9,7.9-10.6c0.4-0.4,0.8-0.8,1.2-1.2c4.5,1.3,9.4,1.6,14,2c2.4,0.3,4.9,0.5,7.6,0.7
	C614,806.3,608.8,808.2,603.9,811.5z M631.6,802.5c2.3-1.1,4.6-2,7.4-1.5C636.5,801.5,634,802.1,631.6,802.5z M641.6,794.6
	c-12.3-1.1-26.5,4.8-39.5,4.8c1.9-1.1,3.7-2.1,5.3-3c3.6-2.3,6.6-4.6,10.2-5.8c3-1.1,10.9-1.2,11.1-5.3c2.1,1.1,3.7,0.8,5.3,0
	c5,2.9,10.9,5,13.8,6.4c2,0.8,4,1.5,6,2C649.8,794.2,645.8,795,641.6,794.6z M660.1,786.6c-6.2-2.1-13.1-1.7-19.1-4.2
	c-0.8-0.3-1.6-0.8-2.4-1.2c1.7-1.9,3.7-3.4,6.1-3.4c0-0.7,0.3-1.5,0.3-2.3c3.8,0.8,11,3,14.2,0.5c0.3-3,0-6.2,0.3-9.3
	c1.6,2.4,3.3,4.6,4.9,6.9c3.4,4.6,7.7,8.9,12.3,12.5c4.5,3.4,10.7,5,14.3,9.5c-4.5-2.8-11.4-2.3-16.4-3.3
	C669,791.2,665.2,788.4,660.1,786.6z M741.6,853.6c-2.3-1.7-4.6-3.4-7.3-5c-9.4-6-16.2-13.1-24.1-20.8c-4-3.8-8.3-5.8-12.5-9.3
	c-4.5-3.8-7.3-7.8-12.5-10.9c-2.9-1.7-6.8-2.8-9.3-5.2c-2.8-2.7-3.6-4.9-6.8-6.9c6.2,0.3,12.6,0.3,19.2,1.3
	c6.6,1.1,9.5,3.8,13.9,7.9c3.6,3.3,8.5,8.7,12.9,10.5c6.6,2.7,9.4,3.4,14,9.3c3.7,4.6,6.9,9.3,10.1,14.2c2.9,4.5,5.3,9.4,8.5,13.5
	C745.7,852,743.7,852.9,741.6,853.6z M771.3,884.6c-4.2-3-8.7-6-12.5-9.9c-0.1-0.1-0.3-0.3-0.3-0.4c4.9,1.9,10.2,0.9,15.2,2.3
	c1.2,5.8,5.4,12.3,8.9,17.4C779,893.6,774.3,886.7,771.3,884.6z M788.1,850.8c-8.6-8.7-20.5-13.2-27.7-23.5
	c-6.2-8.9-13.2-19.6-16.8-30.2c-2.5-7.4-4.1-13-8.9-19.5c-3.7-5.2-8.1-9.8-11.9-15c-0.8-1.1-1.6-2.1-2.5-3.2c3.2-1.2,6,4.2,9.4,4.9
	c-0.1,0.8,0.4,2.1,0.3,2.9c5.2-0.3,10.7,3,13.6,7.3c3.2,4.8,1.2,14.6,8.5,13.8c-0.4,7.3,4.5,5.4,8,10.2c1.2-4.5,6.1-2.7,4.4,0.3
	c1.5,4.9,5.8,3.2,9.5,4.6h5.6c0.1,0.4-2,0.3,0,0.9c1.5-2.1-1.7-5.8,0-8.6c2.9,1.7,5.4,5.6,9.4,5.3c-3.6-2-2.3-8.5-2-11.9
	c2.8,0.3,4.5-1.3,4-4c1.1,0.1,2,0.8,3,1.7c4.8,25.2,8.3,50.5,10.5,76.7c0.4,4.5,1.5,9.5,2.4,14.2
	C803.7,865.9,796.5,859.3,788.1,850.8z M834.1,828.8c-1.3-13.1-1.7-26-2.5-39c-0.7-10.5-4.1-20.8-6.9-30.9c0.3-0.3,0.4-0.5,0.7-0.9
	c0.1,0.8,0.7,1.6,0.5,2.7c1.3-1.5,2.3-3.3,2.7-5.2c1.1-0.3,2.8-0.4,3.7,0c-2,4,6.2,8.5,8.3,12.7c-0.7-3.8,2.5-8.7,3.8-12.5
	c2.3,3,4.1,5.3,4.1,9.3c2.4-1.5,3.3-6.1,6.1-6.2c0.1,1.7,0.1,3.6,0.3,5.4c0.9-0.1,2,0.1,3,0.3c-0.3,8.2-1.6,16-4,24
	C849.7,802.6,848.4,819.6,834.1,828.8z M893.4,834.1c-2.4,13.1-11.3,21.2-17.6,32.9c-3,5.6-5,11.8-8.1,17.5
	c-3.3,6.2-7.8,11.5-11.1,17.6c-2.5,4.6-4.8,9.5-6.5,14.4c-1.5,4.5-4.2,8.7-5.8,13.4c0.8-6.5-4.4-12.1-5.4-18.2
	c-1.1-6.2-1.3-13-1.9-19.2c-0.5-7.2,0.3-10.3,5.4-14.6c5-4.1,10.5-7.4,15.4-11.8c14-12.3,24.5-27.7,37.6-40.8
	C894.9,828.2,894,831.1,893.4,834.1z M889.1,818.5c-4.6,4.8-10.2,8.2-15,12.9c-3.7,3.6-14.3,15.1-19.9,13.6
	c1.5-17.1,7.4-33.3,8.7-50.3c0.7-8.9,2-17.1,3.2-25.7c0,0,0-0.1,0-0.3c0.3,0.5,0.5,1.1,0.8,1.9c1.2,3.4,1.9,9.8,1.7,13.5
	c0.1-0.3,0.4-0.7,0.7-0.9c-0.4,4.4,8.9,9.7,11.3,11.4c1.3-2.9,2.4-6.8,2.4-10.1c0.1,0.9,0.7,1.9,0.8,2.6c0.9-2.8,2.1-5.7,3.4-8.6
	c-0.3,2.4,3.7,5.3,6.9,7.2c0.9,3.4,1.7,6.8,1.7,11.3c0,4.6,0.1,9.4,0.4,13.9C893.7,813.5,891.5,816,889.1,818.5z M967.9,802.9
	c-3.3,5.4-7.8,10.2-11.1,15.9c-4.1,6.8-7,13-13.2,18.2c-5.6,4.6-11.3,8.6-17.4,12.5c-5.2,3.3-12.5,8.6-18.5,9.3
	c2.4-2.8,4.1-10.5,5.7-14.2c2-4.8,3.6-9.8,6-14.4c4.5-8.7,9.8-17.1,13-26.4c0.4-1.3,0.9-2.7,1.5-3.8c1.9,0.7,4,0.9,5.7,0.5
	c0-2.4-0.5-5.4-1.5-7.8c3.7-0.3,6.5,3.3,10.2,2.1c0.4-2.4,0-4.9-0.5-7c2.3,1.9,4.1,4.8,6.9,6.2c0.4-3.4,0-7,0.8-10.3
	c0.7-3,2.4-5.7,3.3-8.5c1.9,2.7,2.8,9.4,7.2,8.3c-3.3-5.3,0.3-7.7,3.2-11.8c0.8,0.4,2.5,0.3,3,0.7c1.1-3.6,4.1-6.8,4.9-10.3
	c0.7-3-0.1-7.4,2.8-8.5c-0.7,5.4-1.7,10.5-2.9,15.8C974.5,780.7,974.3,792.3,967.9,802.9z M988.6,792.8c0.5-12.9,6.8-24.1,8.9-36.6
	c0.3-1.3,0.4-2.6,0.7-4.2c0.5,0.3,1.1,0.5,1.5,0.9c-0.4-0.3-0.7-0.5-1.1-0.8c4.4,2.3,13.9,7.2,13.2,13.4c1.1-2.3,2.5-5.7,5.7-5.4
	c4.4,0.4,2.3,3.7,2.7,6.1C1010.2,776,1000.2,785.8,988.6,792.8z"/>
</svg>
